<svg id="Layer_1" data-name="Layer 1" xmlns="http://www.w3.org/2000/svg" viewBox="0 0 916.826 696.754">
  <path d="M866.155,696.754c33.313,0,57.491-39.924,48.938-80.63-13.655-65-52.774-152.138-162.117-193.47C607.753,367.759,615.894,146.493,499.9,146.493s-116.6,112.369-151.187,123.8S198.2,247.78,172.308,347.952c-47.869,185.166-112.122,95.9-161.985,238.494-3.159,9.035-5.813,18.3-8.041,27.427-10.047,41.177,14.344,82.881,48.427,82.881Z" fill="#f3f5fd"></path>
  <g>
    <rect x="130.17" width="621.087" height="449.786" fill="#dee8f5"></rect>
    <path d="M209.043,347.136s58.2-168.534,146.183-161.1,115.525,87.985,196.556,87.985S669.844,112.578,669.844,112.578" fill="none" stroke="#fff" stroke-miterlimit="10" stroke-width="3"></path>
    <rect x="130.17" width="621.087" height="37.051" fill="#c1d8ed"></rect>
    <circle cx="730.455" cy="18.526" r="9.296" fill="#fff"></circle>
  </g>
  <g>
    <rect x="210.13" y="115.708" width="459.714" height="230.444" fill="none" stroke="#fff" stroke-miterlimit="10" stroke-width="3"></rect>
    <rect x="200.435" y="107.161" width="17.217" height="17.217" fill="#fff"></rect>
    <rect x="661.236" y="107.161" width="17.217" height="17.217" fill="#fff"></rect>
    <rect x="200.435" y="337.543" width="17.217" height="17.217" fill="#fff"></rect>
    <rect x="443.956" y="107.161" width="17.217" height="17.217" fill="#fff"></rect>
    <rect x="443.956" y="337.543" width="17.217" height="17.217" fill="#fff"></rect>
    <rect x="661.236" y="337.543" width="17.217" height="17.217" fill="#fff"></rect>
  </g>
  <g>
    <g>
      <rect x="524.578" y="239.144" width="18.248" height="68.169" transform="translate(-38.609 94.478) rotate(-9.765)" fill="#f3f5fd"></rect>
      <rect x="522.603" y="241.957" width="13.81" height="13.81" transform="translate(-34.537 93.414) rotate(-9.765)" fill="#dee8f5"></rect>
      <rect x="525.404" y="258.23" width="13.81" height="13.81" transform="translate(-37.257 94.125) rotate(-9.765)" fill="#c1d8ed"></rect>
      <rect x="528.204" y="274.503" width="13.81" height="13.81" transform="translate(-39.976 94.836) rotate(-9.765)" fill="#EF3340"></rect>
      <rect x="531.005" y="290.776" width="13.81" height="13.81" transform="translate(-42.696 95.546) rotate(-9.765)" fill="#EF3340"></rect>
    </g>
    <g>
      <rect x="512.028" y="244.265" width="18.248" height="68.169" transform="translate(-68.492 315.738) rotate(-31.735)" fill="#f3f5fd"></rect>
      <rect x="501.242" y="250.416" width="13.81" height="13.81" transform="translate(-59.376 305.754) rotate(-31.735)" fill="#dee8f5"></rect>
      <rect x="509.927" y="264.46" width="13.81" height="13.81" transform="translate(-65.464 312.422) rotate(-31.735)" fill="#c1d8ed"></rect>
      <rect x="518.612" y="278.503" width="13.81" height="13.81" transform="translate(-71.552 319.09) rotate(-31.735)" fill="#EF3340"></rect>
      <rect x="527.298" y="292.547" width="13.81" height="13.81" transform="translate(-77.64 325.758) rotate(-31.735)" fill="#EF3340"></rect>
    </g>
    <g>
      <path d="M592.891,685.463l20.854-2.481c-.939-7.892-2-17.373-2.072-18.927,0,.1,0,.181,0,.245h-21C590.677,664.93,590.677,666.845,592.891,685.463Z" fill="#FAA896"></path>
      <path d="M676.567,687.973l21-.069s-.07-21.684-.07-23.6h-21C676.5,666.225,676.567,687.973,676.567,687.973Z" fill="#FAA896"></path>
      <path d="M622.138,678.831l-36.994-.63c1.738-44.032,1.845-90.219,2.386-134.356,7.221-47.574,11.023-99.816,19.935-147.049l.267.078.781-5.329,76.078-4.7,2.96,49.7-.234,0c3.972,71.394,11.143,171.95,15.662,241.088l-36.868,3.115c-6.643-67.786-14.923-166.556-21.246-237.767-7.261,34.67-14.2,70.569-20.515,104.941C623.087,590.954,622.021,635.933,622.138,678.831Z" fill="#262626"></path>
      <path d="M651.038,696.1a4.107,4.107,0,0,1-4.076-4.427h0a4.107,4.107,0,0,1,2.659-3.529l24.442-8.187a3.463,3.463,0,0,1,2.873.32,19.108,19.108,0,0,0,11.467,3.4,17.027,17.027,0,0,0,8.821-3.223,1.547,1.547,0,0,1,2.527,1.2V693.6a2.678,2.678,0,0,1-2.689,2.678Z" fill="#c1d8ed"></path>
      <path d="M567.3,696.1a4.107,4.107,0,0,1-4.076-4.427h0a4.108,4.108,0,0,1,2.658-3.529l24.443-8.187a3.461,3.461,0,0,1,2.872.32,19.112,19.112,0,0,0,11.468,3.4,17.024,17.024,0,0,0,8.82-3.223,1.547,1.547,0,0,1,2.528,1.2V693.6a2.678,2.678,0,0,1-2.689,2.678Z" fill="#c1d8ed"></path>
      <g>
        <path d="M706.98,422.882c0,2.98-1.573,12.943.958,13.654,1.517.427,3.309-7,3.309-7" fill="#FAA896"></path>
        <path d="M718.928,421.317s8.264,20.114-1.162,31.67a1.888,1.888,0,0,1-3.346-1.081c-.458-7.792-2.029-23.8-7.166-21.926V417.417" fill="#FAA896"></path>
      </g>
      <path d="M534.336,317.21s-11.795-14.37-13.264-17.429c-5.175-10.768-2.59-15.7-.435-17.276,2.543-1.864,14.336,13.982,14.336,13.982s-1.023-5.7,1.185-6.075c.907-.153,1.626.738,3.046,4.772,1.618,4.6,4.852,11.516,4.852,11.516Z" fill="#FAA896"></path>
      <g>
        <g>
          <path d="M660.574,284.485s-7.733-4.1-6.006-25.156l-15.977-2.963s1.795,18.879-6.287,24.872Z" fill="#FAA896"></path>
          <path d="M663.633,251.164c-1.107,6.388-4.593,12.438-10.228,14.5-6.69,2.45-11.645,2.616-19.357,2.616-10.526,0-10.178-10.977-10.473-22.039-.3-11.1.586-23.018,4.746-26.888,8.3-7.724,32.673-2.833,35.637,10.087C665.491,236.123,664.685,245.083,663.633,251.164Z" fill="#FAA896"></path>
        </g>
        <path d="M616.278,214.754c0-5.282,6.574-13.937,24.111-2l.018.012a49.861,49.861,0,0,1,13.529,1.479c8.02,2.4,18.077,9.123,15.5,25.425-1.537,9.711-4.281,16.054-7.188,20.7a24.072,24.072,0,0,1-6.787,7.354c-2.141,1.38-6.629,1.332-9.461,1.37-5.724.077-8.03-.331-8.831-.806-6.117-3.633-5.16-21.788-4.19-32.473.16-1.759-.164-4.681-4.676-4.681C616.794,231.127,616.278,219.675,616.278,214.754Z" fill="#0f1011"></path>
        <path d="M627.182,248.339a6.143,6.143,0,0,0,12.244,1,6.041,6.041,0,0,0-5.62-6.624C629.428,242.576,627.459,244.958,627.182,248.339Z" fill="#FAA896"></path>
      </g>
      <path d="M544.737,301.964l34.138,38.408,26.7-47.794c2.528-7.551,8.284-12.61,20.024-13.113,4.015-.172,23.606-.2,37.95-.2,9.636,0,17.547,2.957,22.115,7.525a20.147,20.147,0,0,1,5.021,8.13l.138-.051,22.953,62.414a10.977,10.977,0,0,1,.552,2.162l9.264,62.415-21.569,3.2-9.1-61.305-9.27-25.206a53.3,53.3,0,0,0-1.573,11.836c0,21,9.5,30.418,8.8,41.2-1.1,16.945-83.429,12.941-87.624,3.316-4.319-9.926,4.447-16.042,4.063-48.509-.042-3.534-.314-7.23-.69-10.994l-16.2,29a10.9,10.9,0,0,1-8.336,5.52,10.68,10.68,0,0,1-1.182.065,10.9,10.9,0,0,1-8.148-3.659l-44.884-52.5Z" fill="#EF3340"></path>
    </g>
  </g>
  <g>
    <g>
      <g>
        <rect x="763.42" y="667.148" width="14.298" height="29.607" fill="#c1d8ed"></rect>
        <rect x="853.179" y="667.148" width="14.298" height="29.607" fill="#c1d8ed"></rect>
      </g>
      <rect x="750.314" y="541.721" width="130.269" height="145.485" fill="#c1d8ed"></rect>
      <rect x="715.717" y="541.721" width="130.269" height="145.485" fill="#dee8f5"></rect>
      <g>
        <rect x="728.823" y="667.148" width="14.298" height="29.607" fill="#dee8f5"></rect>
        <rect x="818.581" y="667.148" width="14.298" height="29.607" fill="#dee8f5"></rect>
      </g>
      <g opacity="0.53">
        <rect x="722.724" y="550.716" width="116.253" height="36.899" fill="#f3f5fd"></rect>
      </g>
      <g opacity="0.53">
        <rect x="722.724" y="596.646" width="116.253" height="36.899" fill="#f3f5fd"></rect>
      </g>
      <g opacity="0.53">
        <rect x="722.724" y="642.576" width="116.253" height="36.899" fill="#f3f5fd"></rect>
      </g>
      <circle cx="780.851" cy="569.165" r="5.163" fill="#fff"></circle>
      <circle cx="780.851" cy="615.096" r="5.163" fill="#fff"></circle>
      <circle cx="780.851" cy="661.026" r="5.163" fill="#fff"></circle>
    </g>
    <g>
      <rect x="774.494" y="487.135" width="8.944" height="47.429" transform="translate(-96.638 192.931) rotate(-13.302)" fill="#f0f6ff"></rect>
      <g>
        <rect x="765.518" y="501.405" width="41.197" height="4.914" transform="translate(148.008 1185.531) rotate(-79.548)" fill="#c1d8ed"></rect>
        <rect x="787.154" y="483.382" width="4.549" height="4.914" transform="translate(164.573 1170.524) rotate(-79.225)" fill="#dee8f5"></rect>
      </g>
      <rect x="777.524" y="492.499" width="2.884" height="42.723" transform="translate(-134.133 321.272) rotate(-21.502)" fill="#EF3340"></rect>
      <rect x="769.049" y="510.849" width="23.605" height="30.169" fill="#c1d8ed"></rect>
    </g>
  </g>
  <g>
    <circle cx="828.808" cy="119.154" r="30.203" fill="#c1d8ed"></circle>
    <circle cx="822.652" cy="119.154" r="30.203" fill="#dee8f5"></circle>
    <circle cx="822.652" cy="119.154" r="25.753" fill="#f3f5fd"></circle>
    <path d="M822.653,121.772a1.471,1.471,0,0,1-1.474-1.473V101.271a1.474,1.474,0,1,1,2.947,0v16.508l10.23-5.751A1.475,1.475,0,0,1,835.8,114.6l-12.426,6.985A1.471,1.471,0,0,1,822.653,121.772Z" fill="#dee8f5"></path>
  </g>
  <g>
    <g>
      <path d="M264.371,291.18s11.542-9.168,12.357-12.461-7.311-9.77-7.311-9.77l-6.433,1.508s1.773-5.7-.435-6.075c-.907-.153-1.626.737-3.047,4.772-1.618,4.6-4.851,11.515-4.851,11.515Z" fill="#FAA896"></path>
      <path d="M264,269.261a30.461,30.461,0,0,1,3.279-2.15,21.788,21.788,0,0,1,3.639-1.72,11.857,11.857,0,0,1,2.156-.576,7.9,7.9,0,0,1,1.252-.1l.971.049a20.671,20.671,0,0,1,3.846.639,1.514,1.514,0,0,1-.28,2.972l-.085.006-3.485.255-.865.071a4.521,4.521,0,0,0-.568.12,7.971,7.971,0,0,0-1.343.516,26.053,26.053,0,0,0-2.877,1.651c-.943.624-1.932,1.311-2.8,1.965l-.04.031a2.331,2.331,0,0,1-2.805-3.723Z" fill="#FAA896"></path>
      <path d="M289.274,275.732l-1.991.237-32.76-10.9a.378.378,0,0,1-.23-.5l.711-1.73a.378.378,0,0,1,.47-.216l32.367,10.838,1.654,1.629A.379.379,0,0,1,289.274,275.732Z" fill="#fff"></path>
    </g>
    <g>
      <path d="M211.676,685.935l-20.853-2.48c.939-7.893,2-17.373,2.071-18.928,0,.1,0,.182,0,.245h21C213.89,665.4,213.89,667.317,211.676,685.935Z" fill="#FAA896"></path>
      <path d="M128,688.445l-21-.068s.071-21.685.071-23.6h21C128.071,666.7,128,688.445,128,688.445Z" fill="#FAA896"></path>
      <path d="M182.429,679.3l36.994-.63c-1.538-38.963-1.8-83.529-2.213-123.855a233.869,233.869,0,0,0-2.26-29.873c-5.952-42.723-9.834-85.2-17.848-127.678l-.267.079-.782-5.33-76.077-4.7-3.96,49.706s-9.909,171.947-14.428,241.084l36.868,3.116C145.1,613.441,155.38,514.671,161.7,443.46c7.26,34.669,12.195,70.568,18.513,104.94C181.48,591.426,182.546,636.406,182.429,679.3Z" fill="#262626"></path>
      <path d="M153.529,696.567a4.108,4.108,0,0,0,4.076-4.427h0a4.107,4.107,0,0,0-2.659-3.529L130.5,680.424a3.463,3.463,0,0,0-2.873.32,19.108,19.108,0,0,1-11.467,3.4,17.035,17.035,0,0,1-8.821-3.222,1.546,1.546,0,0,0-2.527,1.2v11.952a2.678,2.678,0,0,0,2.689,2.678Z" fill="#c1d8ed"></path>
      <path d="M237.262,696.567a4.107,4.107,0,0,0,4.076-4.427h0a4.108,4.108,0,0,0-2.658-3.529l-24.443-8.187a3.461,3.461,0,0,0-2.872.32,19.112,19.112,0,0,1-11.468,3.4,17.031,17.031,0,0,1-8.82-3.222,1.547,1.547,0,0,0-2.528,1.2v11.952a2.678,2.678,0,0,0,2.689,2.678Z" fill="#c1d8ed"></path>
    </g>
    <g>
      <path d="M143.462,283.4s8.2-3.522,8.2-25.065l16.482-1.679s-3.4,19.035,4.317,25.8Z" fill="#FAA896"></path>
      <g opacity="0.2">
        <path d="M169.463,278.174,156.821,266.75l10.6.759A29.31,29.31,0,0,0,169.463,278.174Z"></path>
      </g>
      <path d="M143.13,249.284c.592,6.585,3.63,13.023,9.185,15.59a41.294,41.294,0,0,0,19.454,4.271c17.893,0,17.691-40.7,9.9-49.244s-32.967-5.6-37.056,7.282C142.494,233.845,142.567,243.017,143.13,249.284Z" fill="#FAA896"></path>
      <g>
        <circle cx="169.085" cy="244.896" r="1.477" fill="#0f1011"></circle>
        <circle cx="180.78" cy="244.896" r="1.477" fill="#0f1011"></circle>
        <path d="M183.647,241.97a.694.694,0,0,0,.064-1.386l-3.9-.368a.694.694,0,1,0-.13,1.382l3.9.368C183.6,241.968,183.625,241.97,183.647,241.97Z" fill="#0f1011"></path>
        <path d="M166.182,241.97a.668.668,0,0,0,.109-.009l3.922-.61a.694.694,0,0,0-.214-1.372l-3.922.61a.695.695,0,0,0,.1,1.381Z" fill="#0f1011"></path>
        <path d="M168.816,256.549s5.388,1.019,9.307,0c0,0-.323,3.577-4.654,3.577S168.816,256.549,168.816,256.549Z" fill="#fff"></path>
      </g>
      <path d="M156.468,233.445c-.879,29.747-5.195,32.471-5.195,32.471S137.2,255.8,136.73,237.855c-.444-16.823,12.651-25.661,21.105-26.837,32.128-4.468,33.255,24.541,33.255,24.541-16.124,2.764-38.085-1.8-38.085-1.8" fill="#0f1011"></path>
      <path d="M161.13,247.871a6.264,6.264,0,0,1-12.527,0,6.16,6.16,0,0,1,6.263-6.263C159.327,241.827,161.13,244.412,161.13,247.871Z" fill="#FAA896"></path>
      <circle cx="130.899" cy="223.574" r="14.281" fill="#0f1011"></circle>
      <g opacity="0.2">
        <path d="M174.994,253.6a.515.515,0,0,0,.11-.012l3.634-.8a.508.508,0,0,0,.335-.251.5.5,0,0,0,.035-.417l-1.905-5.381a.51.51,0,0,0-.961.34l1.712,4.837-3.069.674a.51.51,0,0,0,.109,1.008Z"></path>
      </g>
    </g>
    <g>
      <path d="M233.706,347.414a10.819,10.819,0,0,0,1.7-.135,10.711,10.711,0,0,0,7.739-5.516l28.548-53.306-18.877-10.11L230.9,319.266l-33.957-32.3-14.758,15.515,44.14,41.982A10.711,10.711,0,0,0,233.706,347.414Z" fill="#EF3340"></path>
      <path d="M202.564,397.665c-4.272,9.819-88.22,13.9-89.341-3.375-.714-10.992,8.972-20.586,8.972-42.009s-19.709-48.78-3.65-64.839c4.66-4.66,12.7-7.668,22.514-7.678.734,5.72,35.463,5.74,35.728.132,1.326.021,2.356.041,3,.072,33.832,1.458,18.965,39.96,18.639,68.244C198.026,381.31,206.969,387.55,202.564,397.665Z" fill="#EF3340"></path>
      <path d="M176.787,279.9c-.265,5.608-3.314,13.857-12.725,14.479-12.541.826-22.269-8.891-23-14.611h.031C153.437,279.764,169.588,279.784,176.787,279.9Z" fill="#FAA896"></path>
      <g>
        <path d="M216.225,388.333H276.76a3.757,3.757,0,0,0,3.7-3.089l8.774-48.65a3.149,3.149,0,0,0-3.1-3.707H225.6a3.756,3.756,0,0,0-3.7,3.089l-8.774,48.65A3.149,3.149,0,0,0,216.225,388.333Z" fill="#262626"></path>
        <circle cx="251.179" cy="360.61" r="8.099" fill="#fff"></circle>
      </g>
      <g>
        <path d="M218.316,358.656c3.077,0,13.363-1.62,14.1.988.441,1.567-7.225,3.417-7.225,3.417" fill="#FAA896"></path>
        <path d="M216.7,370.993s20.766,8.532,32.7-1.2a1.949,1.949,0,0,0-1.117-3.455c-8.043-.476-24.565-2.1-22.635-7.4H212.674" fill="#FAA896"></path>
      </g>
      <path d="M156.82,379.908c.113,0,.225,0,.34,0l64.073-1.954-.679-22.222-56.828,1.733-29.982-62.741-20.059,9.586,33.106,69.28A11.115,11.115,0,0,0,156.82,379.908Z" fill="#EF3340"></path>
    </g>
  </g>
</svg>