<svg width="73" height="90" viewBox="0 0 73 90" fill="none" xmlns="http://www.w3.org/2000/svg">
<path d="M3.67798 63.5742L12.178 68.2961L38.178 52.402L40.5 89L63 73L63.178 69.5345L58.178 40.2299L41.678 14.8987L31.678 14.402L23.178 14.8987L16.678 21.8524L18.178 26.3226L9.17798 46.402L2.17798 55.1305L3.67798 63.5742Z" fill="black" fill-opacity="0.55"/>
<g filter="url(#filter0_d_9_143)">
<path d="M55.8532 8.46897C55.3037 9.01827 53.1045 14.421 52.0736 17.0537C47.1327 11.007 31.9364 11.7793 24.9558 12.9213C25.2309 11.8224 23.4709 6.50968 22.5564 3.99067L28.3901 9.48823L28.3934 1.24542L35.5994 8.46079L40.4083 1.25027L43.4946 9.49433L51.3923 4.00231L50.7027 11.5579C52.6485 10.2994 56.4027 7.91967 55.8532 8.46897Z" fill="white"/>
</g>
<path d="M39.678 15.902C40.478 17.902 40.3447 21.0687 40.178 22.402C40.178 21.902 37.678 18.402 36.178 17.402C34.678 16.402 33.178 16.402 32.678 16.402C32.178 16.402 32.178 16.902 32.678 19.402C33.0781 21.402 33.178 21.402 34.178 23.402C34.678 24.902 34.378 25.302 33.178 24.902C31.678 24.402 31.178 19.402 30.178 17.902C29.178 16.402 29.178 13.402 29.678 8.90204C29.9467 6.48381 30.178 4.90204 31.178 3.40204C32.178 4.90204 32.4405 5.42691 33.178 6.90204C34.178 8.90204 33.678 7.90204 36.178 10.902C36.8938 11.7609 38.678 13.402 39.678 15.902Z" fill="black"/>
<path fill-rule="evenodd" clip-rule="evenodd" d="M31.178 2.50067L31.594 3.12471C32.6101 4.64875 32.883 5.19389 33.6252 6.67845C34.1323 7.69262 34.2317 7.88539 34.4996 8.20697C34.5977 8.32463 34.7129 8.45261 34.8741 8.63169C34.9583 8.72525 35.055 8.83274 35.1685 8.96C35.4922 9.3232 35.9333 9.8274 36.5621 10.582C36.6814 10.7251 36.8393 10.8982 37.0242 11.1008C37.8728 12.0311 39.2893 13.5839 40.1423 15.7164C40.5739 16.7955 40.7436 18.1545 40.7902 19.3831C40.8371 20.6199 40.7607 21.772 40.6742 22.4641L39.678 22.4021C39.678 22.4297 39.6813 22.4488 39.6829 22.4561C39.6821 22.453 39.6804 22.4476 39.6777 22.4397C39.6678 22.4116 39.6493 22.3672 39.6187 22.3047C39.5577 22.1802 39.4638 22.0144 39.3395 21.8148C39.092 21.4173 38.7423 20.915 38.3433 20.3933C37.5317 19.3319 36.575 18.2676 35.9007 17.8181C34.6354 16.9746 33.3687 16.9078 32.8043 16.9025C32.8035 16.9206 32.803 16.9412 32.803 16.9646C32.803 17.342 32.9152 18.0382 33.1683 19.304C33.3677 20.301 33.4856 20.7622 33.6673 21.2164C33.8026 21.5546 33.9715 21.8872 34.2432 22.4219C34.3525 22.6369 34.4783 22.8846 34.6252 23.1785L34.6411 23.2102L34.6524 23.2439C34.7823 23.6338 34.8705 23.9809 34.8991 24.2773C34.9266 24.5613 34.9084 24.8835 34.7282 25.1469C34.5267 25.4414 34.2123 25.5401 33.9232 25.5472C33.6478 25.554 33.3391 25.4828 33.0199 25.3764C32.4344 25.1812 32.0453 24.5986 31.7674 24.0269C31.4741 23.4235 31.23 22.6697 31.0105 21.9171C30.9148 21.589 30.8252 21.2663 30.7376 20.9511C30.6178 20.5203 30.5019 20.1033 30.3797 19.705C30.1679 19.0146 29.9667 18.4864 29.762 18.1794C29.1841 17.3125 28.9295 16.0736 28.866 14.5479C28.8018 13.0091 28.9303 11.1038 29.1811 8.84685C29.4484 6.44053 29.6854 4.73957 30.762 3.12471L31.178 2.50067ZM39.6837 22.4593C39.6837 22.4593 39.6834 22.4582 39.6829 22.4561C39.6836 22.4583 39.6838 22.4593 39.6837 22.4593ZM31.2025 4.35152C30.5975 5.55558 30.4019 6.91463 30.175 8.95727C29.9257 11.2003 29.8042 13.045 29.8651 14.5062C29.9265 15.9805 30.172 16.9916 30.5941 17.6247C30.8894 18.0677 31.1257 18.7271 31.3357 19.4116C31.4592 19.814 31.5837 20.2616 31.7082 20.709C31.7958 21.0237 31.8834 21.3383 31.9705 21.6371C32.1885 22.3845 32.4132 23.0681 32.6668 23.5897C32.9358 24.143 33.1716 24.3729 33.3361 24.4277C33.617 24.5213 33.7957 24.5501 33.8984 24.5475C33.9011 24.5475 33.9037 24.5474 33.9061 24.5473C33.9099 24.514 33.912 24.4589 33.9038 24.3737C33.8862 24.1916 33.8275 23.9367 33.7147 23.5935C33.5885 23.3414 33.4754 23.1188 33.3735 22.9182C33.0893 22.359 32.8919 21.9704 32.7388 21.5878C32.5205 21.042 32.3883 20.5031 32.1877 19.5001C31.9409 18.2659 31.803 17.4621 31.803 16.9646C31.803 16.7248 31.8317 16.4461 31.9924 16.2252C32.1865 15.9583 32.4698 15.9021 32.678 15.9021H32.681C33.2051 15.9021 34.8294 15.902 36.4554 16.986C37.2811 17.5365 38.3243 18.7222 39.1377 19.7858C39.3759 20.0974 39.5994 20.4049 39.7972 20.6921C39.8078 20.293 39.8076 19.8627 39.7909 19.421C39.7458 18.2329 39.5821 17.0086 39.2138 16.0878C38.4371 14.1461 37.1821 12.7647 36.3254 11.8217C36.1218 11.5976 35.9407 11.3983 35.7939 11.2222C35.1727 10.4767 34.7388 9.98091 34.422 9.62537C34.3215 9.51267 34.2308 9.41188 34.1485 9.32044C33.9768 9.12962 33.8418 8.97957 33.7314 8.84715C33.3816 8.42734 33.2299 8.1239 32.7601 7.18429C32.7505 7.16502 32.7407 7.14548 32.7308 7.12567L32.7281 7.12025C32.1205 5.9051 31.8435 5.35104 31.2025 4.35152ZM33.9499 24.5423C33.9499 24.5423 33.9495 24.5425 33.9486 24.5427Z" fill="black"/>
<path d="M51.178 81.4663L40.5 89.0001L37.3404 76.0167L34.7779 53.7231L22.478 63.136L14.278 67.5947L11.678 67.402C13.5571 64.5947 16.678 65.402 19.178 62.402C20.0906 61.3069 24.178 55.5001 24.178 55.5001C24.178 55.5001 22 54.0001 19.178 56.5001C19.178 56.5001 21.6999 50.9909 25.5 50.0001C28.6999 49.1657 26.228 43.5488 24.178 41.402C30.328 38.925 33.2405 38.8608 33.753 39.3562C34.983 46.4901 39.7322 42.3286 41.953 39.3562L44.5155 43.8149L46.053 34.402L51.178 81.4663Z" fill="white"/>
<path d="M17.178 21.902L18.178 19.402C16.578 19.002 15.178 12.0687 14.178 8.40204L14.178 4.90204C14.1779 3.90204 20.678 11.902 21.678 12.902C22.478 13.702 23.678 14.2354 24.178 14.402C24.178 14.5687 24.078 15.102 23.678 15.902C23.278 16.702 19.178 20.2354 17.178 21.902Z" fill="black"/>
<path fill-rule="evenodd" clip-rule="evenodd" d="M20.4639 10.7641C21.2222 11.6489 21.799 12.3159 22.0315 12.5485C22.7546 13.2715 23.873 13.7733 24.3361 13.9277L24.678 14.0417V14.402C24.678 14.6797 24.5411 15.2939 24.1252 16.1256C24.0439 16.2881 23.8977 16.4726 23.7422 16.6503C23.5773 16.8389 23.3676 17.058 23.1276 17.297C22.647 17.7755 22.0274 18.3507 21.3623 18.9488C20.0313 20.1459 18.5012 21.4502 17.4981 22.2861L16.7137 21.7163L17.5488 19.6286C17.4197 19.5272 17.3043 19.4074 17.2016 19.2826C16.9734 19.0052 16.7637 18.6486 16.5691 18.2491C16.1793 17.4487 15.8139 16.3992 15.4742 15.2712C15.0483 13.8569 14.6466 12.2595 14.2853 10.8226C14.0738 9.98166 13.8762 9.19571 13.6956 8.53359L13.678 8.46899L13.678 4.90206C13.678 4.90205 13.678 4.90206 13.678 4.90206C13.678 4.81998 13.6917 4.65264 13.8195 4.50585C13.9678 4.33553 14.1647 4.30737 14.2919 4.31775C14.4064 4.3271 14.5013 4.36735 14.5599 4.39613C14.625 4.42812 14.6876 4.46747 14.7448 4.50721C14.9645 4.66005 15.2497 4.92287 15.5628 5.23598C16.2007 5.87388 17.054 6.82252 17.9293 7.82278C18.6642 8.6627 19.4212 9.54668 20.0878 10.3251C20.2168 10.4758 20.3424 10.6225 20.4639 10.7641ZM14.678 5.76831C14.7339 5.8223 14.7931 5.88056 14.8557 5.94309C15.4678 6.55519 16.3019 7.48155 17.1767 8.48129C17.9078 9.3168 18.6606 10.196 19.3273 10.9745C19.4566 11.1254 19.5826 11.2726 19.7046 11.4149C20.4462 12.2801 21.057 12.9881 21.3244 13.2556C22.0244 13.9555 22.9821 14.4567 23.6132 14.7215C23.6086 14.7381 23.6037 14.7553 23.5984 14.773C23.5323 14.997 23.4185 15.3029 23.2308 15.6784C23.212 15.7159 23.1427 15.8169 22.9895 15.992C22.8458 16.1563 22.654 16.3575 22.4221 16.5883C21.9589 17.0494 21.3536 17.6117 20.6936 18.2053C19.9455 18.8781 19.1328 19.5861 18.3875 20.2246L18.855 19.0559L18.2992 18.917C18.2504 18.9048 18.1385 18.8474 17.9739 18.6473C17.8153 18.4546 17.6454 18.1752 17.4681 17.8112C17.1142 17.0845 16.7671 16.0966 16.4317 14.9829C16.01 13.5821 15.623 12.042 15.2674 10.6267C15.0606 9.80335 14.8643 9.02223 14.678 8.33525L14.678 5.76831ZM14.119 5.29368C14.1193 5.29383 14.1197 5.29401 14.1201 5.29423Z" fill="black"/>
<path d="M29.178 34.402V31.902L26.678 36.5449L25.678 38.402C25.178 41.902 28.678 42.402 30.178 42.402C31.378 42.402 34.0113 39.402 35.178 37.902L31.678 39.402C33.0113 38.0687 35.578 35.302 35.178 34.902C34.678 34.402 35.178 34.402 33.678 33.902C32.478 33.502 30.178 34.0687 29.178 34.402Z" fill="black"/>
<path fill-rule="evenodd" clip-rule="evenodd" d="M28.6781 33.8853L26.1615 38.5588C26.069 39.3043 26.1858 39.8567 26.4026 40.2723C26.6291 40.7065 26.9869 41.0333 27.4232 41.2788C28.3131 41.7794 29.4616 41.9021 30.1781 41.9021C30.2303 41.9021 30.3295 41.8839 30.4847 41.8141C30.6356 41.7463 30.8132 41.6418 31.0141 41.5007C31.4162 41.2183 31.8723 40.8176 32.3401 40.3579C32.7188 39.9858 33.0977 39.5826 33.4526 39.1855L31.875 39.8616L31.3245 39.0485C31.9854 38.3876 32.949 37.3742 33.6942 36.4816C34.0692 36.0325 34.3751 35.6302 34.5606 35.3261C34.6179 35.2321 34.6574 35.1575 34.6833 35.1013C34.6078 35.0102 34.5563 34.9314 34.5149 34.8624C34.4573 34.7665 34.4553 34.7614 34.4517 34.7578C34.4511 34.7572 34.4505 34.7566 34.4495 34.7556C34.4475 34.7536 34.4148 34.7208 34.268 34.6541C34.1208 34.5872 33.8909 34.5001 33.5199 34.3764C33.0427 34.2173 32.2722 34.239 31.4305 34.371C30.6119 34.4994 29.814 34.7171 29.3362 34.8764L28.6781 35.0958V33.8853ZM34.7241 34.9862C34.7245 34.9859 34.724 34.9905 34.7213 35.0011C34.7223 34.9919 34.7236 34.9866 34.7241 34.9862ZM28.7378 31.665L29.6781 31.9021V33.7297C30.1433 33.6023 30.7033 33.4729 31.2756 33.3831C32.1339 33.2485 33.1134 33.1868 33.8362 33.4277C34.2152 33.5541 34.4854 33.6544 34.6818 33.7438C34.8778 33.8328 35.0332 33.9251 35.1566 34.0485C35.2594 34.1513 35.3267 34.2685 35.3598 34.3262C35.3648 34.3349 35.369 34.3422 35.3724 34.3479C35.403 34.3989 35.4414 34.4583 35.5316 34.5485C35.7952 34.8121 35.7172 35.1605 35.6766 35.2975C35.6237 35.4763 35.5245 35.6661 35.4143 35.8468C35.1894 36.2155 34.8453 36.6633 34.4619 37.1225C34.2262 37.4048 33.9704 37.6976 33.7097 37.9874L34.9811 37.4425L35.5727 38.209C34.9801 38.9709 34.0154 40.1139 33.041 41.0712C32.5547 41.549 32.0545 41.992 31.5889 42.319C31.3559 42.4827 31.1218 42.6242 30.8945 42.7263C30.6714 42.8265 30.4259 42.9021 30.1781 42.9021C29.3945 42.9021 28.043 42.7747 26.9329 42.1503C26.3692 41.8333 25.852 41.3789 25.516 40.7349C25.1786 40.0882 25.0458 39.292 25.1831 38.3313L25.1957 38.2433L28.7378 31.665Z" fill="black"/>
<path d="M28.178 70.402C26.978 72.002 23.678 78.402 22.178 81.402C22.978 83.402 34.5113 86.902 40.178 88.402C40.5113 85.0687 41.178 77.302 41.178 72.902C41.178 68.502 40.8446 56.402 40.678 50.902L28.178 55.402C27.5113 55.5687 27.878 57.702 26.678 58.902C25.178 60.402 24.678 59.902 22.178 61.902C20.7811 63.0195 16.8446 66.902 14.678 68.402C16.0113 67.902 18.578 65.702 20.178 64.902C21.778 64.102 29.678 57.902 33.178 54.902V61.402C33.178 63.902 29.678 68.402 28.178 70.402Z" fill="black"/>
<path fill-rule="evenodd" clip-rule="evenodd" d="M41.1569 50.1982L41.1778 50.8869C41.3444 56.3839 41.678 68.4927 41.678 72.9021C41.678 77.33 41.0088 85.1195 40.6756 88.4518L40.6172 89.0355L40.0501 88.8854C37.2085 88.1332 32.8944 86.8793 29.1855 85.5607C27.3328 84.902 25.6179 84.2225 24.3099 83.577C23.6568 83.2547 23.0913 82.9341 22.6567 82.6214C22.2416 82.3226 21.8702 81.9788 21.7138 81.5878L21.6304 81.3793L21.7308 81.1785C22.4823 79.6755 23.6844 77.3213 24.8496 75.1414C26.0057 72.9784 27.15 70.9394 27.778 70.1021C27.8617 69.9905 27.9513 69.8715 28.0459 69.7459C28.8047 68.7384 29.8847 67.3046 30.8174 65.8232C31.3416 64.9907 31.8118 64.1547 32.1495 63.3816C32.4912 62.5995 32.678 61.9246 32.678 61.4021V55.9804C30.9259 57.4482 28.5108 59.3868 26.2719 61.1222C24.9633 62.1365 23.7119 63.0837 22.6858 63.8286C21.674 64.563 20.8456 65.1273 20.4016 65.3493C19.6954 65.7024 18.7755 66.3531 17.8225 67.0273C17.754 67.0757 17.6853 67.1243 17.6166 67.1729C17.113 67.5288 16.6082 67.882 16.1438 68.1783C15.6851 68.4709 15.2383 68.726 14.8536 68.8702L14.3934 67.991C15.4448 67.2631 16.9461 65.9408 18.3806 64.6384C18.755 64.2985 19.1254 63.9595 19.4809 63.6341C20.4679 62.7306 21.3403 61.932 21.8657 61.5116C23.1529 60.4818 23.9365 60.0888 24.5794 59.7673L24.5839 59.7651C25.1876 59.4632 25.6319 59.2411 26.3245 58.5485C26.8075 58.0655 26.9959 57.3717 27.1379 56.6659C27.1507 56.6019 27.1635 56.5361 27.1765 56.4697C27.2289 56.2003 27.2834 55.92 27.3553 55.697C27.4339 55.4535 27.6008 55.0476 28.0274 54.9249L41.1569 50.1982ZM28.3618 55.8673C28.3498 55.8893 28.3306 55.931 28.307 56.004C28.2553 56.1643 28.2162 56.3644 28.1655 56.6239C28.1509 56.6986 28.1353 56.7782 28.1182 56.8632C27.9769 57.5658 27.7485 58.5387 27.0316 59.2556C27.0244 59.2628 27.0173 59.2699 27.0102 59.277C29.2073 57.5492 31.4086 55.7602 32.8526 54.5224L33.3994 54.0538L28.3618 55.8673ZM33.678 53.9535V61.4021C33.678 62.1295 33.4273 62.9546 33.0659 63.7819C32.7005 64.6182 32.202 65.501 31.6637 66.356C30.7068 67.8756 29.6006 69.3441 28.8436 70.349C28.7494 70.4741 28.6605 70.5921 28.578 70.7021C28.0061 71.4647 26.9004 73.4257 25.7315 75.6127C24.6335 77.6671 23.5014 79.8789 22.7488 81.379C22.842 81.4897 22.9974 81.6345 23.2408 81.8097C23.6122 82.077 24.1232 82.3697 24.7524 82.6802C26.009 83.3004 27.6816 83.9647 29.5205 84.6185C32.9566 85.8401 36.9272 87.0089 39.738 87.7669C40.0846 84.181 40.678 77.035 40.678 72.9021C40.678 68.6865 40.3711 57.3722 40.199 51.6059L33.678 53.9535ZM25.6689 60.3244C25.4562 60.4469 25.2466 60.5518 25.0266 60.6618L25.0205 60.6648C24.4147 60.9677 23.6991 61.3256 22.4904 62.2925C22.0025 62.6828 21.1934 63.4224 20.2433 64.2921C20.6541 64.043 21.2938 63.6034 22.0984 63.0193C23.1129 62.2829 24.3552 61.3426 25.6592 60.3319C25.6625 60.3294 25.6657 60.3269 25.6689 60.3244Z" fill="black"/>
<path d="M27.678 15.9021L31.178 24.4021C29.8446 25.4021 27.078 27.5021 26.678 27.9021C26.178 28.4021 23.678 31.9021 23.178 33.4021C22.778 34.6021 22.0113 36.5687 21.678 37.4021C21.8446 34.0687 22.378 27.2021 23.178 26.4021C23.978 25.602 19.8446 28.0687 17.678 29.4021L12.678 41.4021C12.0113 40.7354 10.678 39.1021 10.678 37.9021C10.678 36.4021 11.3272 36.516 11.678 35.9021C12.6954 34.1211 12.8292 33.1234 12.6195 32.5678C11.8157 32.5398 11.178 31.9021 11.178 31.9021C11.178 31.9021 12.2992 31.7195 12.6195 32.5678C13.0484 32.5827 13.5246 32.424 13.9765 31.9021C14.6777 30.6111 15.6298 28.8888 16.178 27.9021L12.178 29.4021C14.178 27.5687 18.478 23.5021 19.678 21.9021C21.178 19.9021 26.178 15.4021 27.678 15.9021Z" fill="black"/>
<path fill-rule="evenodd" clip-rule="evenodd" d="M23.9922 18.3535C22.3859 19.6509 20.7946 21.2466 20.078 22.2021C19.451 23.0382 18.0468 24.4819 16.578 25.9216C15.8372 26.6478 15.0715 27.3811 14.3656 28.0477L17.2753 26.9566L16.6151 28.1449C16.0672 29.1311 15.116 30.8519 14.4159 32.1407L14.3901 32.1883L14.3546 32.2293C13.9928 32.6472 13.5987 32.8885 13.2025 32.9977C13.212 33.2673 13.176 33.5664 13.0942 33.8959C12.9448 34.4978 12.634 35.2367 12.1122 36.1501C11.9861 36.3708 11.8349 36.5204 11.7081 36.6344C11.6665 36.6719 11.6311 36.7027 11.5999 36.7299C11.5268 36.7937 11.4767 36.8374 11.4229 36.8989C11.3195 37.0171 11.178 37.2327 11.178 37.9021C11.178 38.3482 11.4397 38.9519 11.8474 39.5798C12.0603 39.9076 12.297 40.2181 12.519 40.4836L17.2786 29.0608L17.416 28.9762C18.5012 28.3084 20.082 27.3548 21.2938 26.6672C21.8946 26.3262 22.4225 26.0404 22.7549 25.8902C22.8387 25.8523 22.9208 25.8181 22.9945 25.7934C23.031 25.7812 23.0747 25.7682 23.121 25.759C23.1574 25.7518 23.241 25.7371 23.3393 25.7529C23.4447 25.7697 23.6819 25.8499 23.7596 26.1227C23.8166 26.3231 23.7348 26.4824 23.7165 26.518C23.6642 26.6197 23.5823 26.7049 23.5316 26.7556C23.532 26.7552 23.5321 26.755 23.5316 26.7556C23.5285 26.7594 23.5087 26.7842 23.4777 26.8458C23.4437 26.9133 23.4054 27.0062 23.3644 27.1277C23.2823 27.3708 23.2 27.6952 23.1195 28.0896C22.9587 28.8768 22.8138 29.8975 22.6873 31.0086C22.5719 32.0227 22.4728 33.1034 22.3914 34.1365C22.508 33.8145 22.6151 33.5098 22.7037 33.2439C22.9781 32.4206 23.7671 31.1171 24.512 29.9997C24.8914 29.4306 25.2711 28.8926 25.5888 28.4638C25.8977 28.0468 26.169 27.704 26.3245 27.5485C26.4484 27.4246 26.721 27.1994 27.0504 26.9364C27.3901 26.665 27.8177 26.3317 28.2728 25.981C29.0522 25.3804 29.9167 24.7251 30.5684 24.2347L27.3295 16.3688C27.2683 16.3757 27.1924 16.3899 27.0996 16.4158C26.8662 16.481 26.5787 16.6049 26.2452 16.7865C25.5796 17.1489 24.7935 17.7063 23.9922 18.3535ZM12.9019 32.0425C12.6193 31.6491 12.1975 31.487 11.8713 31.4255C11.6647 31.3865 11.4758 31.3824 11.3407 31.3871C11.2723 31.3895 11.2153 31.3943 11.1738 31.3987C11.153 31.4009 11.136 31.403 11.1232 31.4048L11.1071 31.4071L11.1016 31.4079L11.0994 31.4083L11.0981 31.4085C11.0979 31.4085 11.0977 31.4086 11.178 31.9021L11.0981 31.4085L10.1343 31.5654L10.8245 32.2556L11.178 31.9021C10.8245 32.2556 10.8244 32.2555 10.8245 32.2556L10.8266 32.2578L10.8298 32.2609L10.8389 32.2697C10.8463 32.2768 10.8561 32.2861 10.8684 32.2974C10.8929 32.32 10.9272 32.3505 10.9703 32.3864C11.0562 32.4579 11.1792 32.5524 11.3318 32.6481C11.551 32.7855 11.8508 32.9375 12.2024 33.0158C12.21 33.172 12.1919 33.3802 12.1237 33.655C12.0043 34.1361 11.7395 34.7865 11.2439 35.654C11.1946 35.7403 11.1331 35.8067 11.0395 35.8909C11.0227 35.9059 11.0026 35.9234 10.9802 35.9429C10.894 36.0178 10.7728 36.1233 10.6701 36.2407C10.3612 36.594 10.178 37.0714 10.178 37.9021C10.178 38.6559 10.5831 39.4689 11.0087 40.1244C11.4473 40.7998 11.9705 41.4016 12.3245 41.7556L12.8524 42.2835L18.0775 29.7434C19.1513 29.0842 20.6405 28.1877 21.7873 27.5369C21.9633 27.437 22.1297 27.3438 22.2843 27.2587C22.2337 27.453 22.1856 27.6647 22.1397 27.8895C21.9703 28.719 21.8215 29.7732 21.6937 30.8955C21.438 33.1426 21.2623 35.7038 21.1787 37.3771L22.1423 37.5877C22.4757 36.7542 23.2473 34.7755 23.6524 33.5602C23.8779 32.8835 24.589 31.687 25.3441 30.5544C25.7147 29.9985 26.0849 29.474 26.3923 29.059C26.7084 28.6324 26.9371 28.3501 27.0316 28.2556C27.1076 28.1796 27.3309 27.9922 27.6745 27.7177C28.0076 27.4516 28.43 27.1224 28.8832 26.7731C29.7893 26.0748 30.8125 25.3012 31.478 24.8021L31.7878 24.5697L28.0532 15.5001L27.8361 15.4277C27.5106 15.3192 27.1536 15.3625 26.8306 15.4527C26.4976 15.5457 26.1367 15.707 25.7671 15.9082C25.0265 16.3114 24.1876 16.9103 23.3639 17.5756C21.7201 18.9032 20.0614 20.5575 19.278 21.6021C18.7051 22.366 17.3593 23.7555 15.878 25.2075C14.4078 26.6486 12.837 28.1197 11.8402 29.0335L12.3536 29.8702L15.0831 28.8467C14.5955 29.7289 14.0281 30.7602 13.5644 31.6133C13.3284 31.8737 13.1037 31.9948 12.9019 32.0425Z" fill="black"/>
<path d="M42.678 21.402L40.678 14.402C47.678 13.902 60.678 27.4021 63.178 31.4021C63.7683 32.3466 65.8605 36.4571 67.178 38.9021C68.0113 40.2895 71.3136 51.6711 71.678 53.402C73.678 62.902 68.678 42.4341 66.678 42.902C70.2284 49.8248 70.9574 58.5639 70.678 59.4021C70.278 60.6021 65.3333 68.3334 63 72.0001L52.178 31.6322V38.9021C51.3446 36.7354 49.378 31.402 48.178 27.402C46.978 23.402 44.3446 21.7354 42.678 21.402Z" fill="black"/>
<path fill-rule="evenodd" clip-rule="evenodd" d="M53.9414 20.8353C58.3969 24.6633 62.3141 29.0763 63.602 31.1371C63.91 31.6298 64.592 32.9161 65.3481 34.3571C65.5244 34.6931 65.7053 35.0387 65.8875 35.3865C66.4916 36.5405 67.1089 37.7194 67.6131 38.6555C67.7418 38.8733 67.8961 39.2374 68.0628 39.6742C68.237 40.1305 68.4382 40.7029 68.6555 41.3506C69.0903 42.6466 69.5942 44.2589 70.0826 45.8789C71.0562 49.1087 71.9798 52.4086 72.1673 53.2991C72.4165 54.4825 72.5608 55.2183 72.6143 55.5875C72.6275 55.6788 72.6377 55.7642 72.6406 55.8339C72.6418 55.8644 72.6432 55.9202 72.6336 55.9811C72.6292 56.0087 72.6175 56.0732 72.5806 56.1448C72.5446 56.2145 72.4405 56.371 72.2234 56.412C72.0194 56.4505 71.8728 56.3552 71.8235 56.3183C71.7664 56.2755 71.7303 56.2299 71.7143 56.2086C71.6798 56.1626 71.6557 56.1162 71.6426 56.0898C71.613 56.0303 71.583 55.9564 71.5544 55.8811C71.4133 55.5097 71.1594 54.7063 70.837 53.6862C70.7024 53.2601 70.5559 52.7963 70.4006 52.3104C70.4745 52.6619 70.5428 53.0061 70.6057 53.3417C70.9042 54.9351 71.0825 56.3397 71.1686 57.4035C71.2115 57.935 71.2319 58.3862 71.232 58.7362C71.2321 58.9109 71.2271 59.0657 71.2165 59.1955C71.2067 59.3152 71.1897 59.4482 71.1524 59.5602C71.0872 59.7556 70.9466 60.0424 70.77 60.3731C70.5877 60.7146 70.3489 61.1356 70.0693 61.6136C69.5097 62.5701 68.7785 63.768 67.9888 65.0398C66.5886 67.2949 64.9985 69.7922 63.8433 71.6065C63.6953 71.839 63.5544 72.0604 63.4219 72.2685L62.8115 73.2277L52.678 35.4282V38.9021L51.7114 39.0816C50.8766 36.9112 48.9046 31.564 47.6991 27.5457C46.5483 23.7096 44.0522 22.1868 42.58 21.8924L42.281 21.8326L40.0281 13.9472L40.6424 13.9033C42.5426 13.7676 44.7745 14.578 47.0399 15.8488C49.3213 17.1286 51.7085 18.9169 53.9414 20.8353ZM52.678 31.5664V31.4021C52.678 29.6811 51.9683 28.1861 51.5941 27.6247L50.6951 28.0315L51.678 31.6981V36.1426C50.7361 33.5764 49.5038 30.0812 48.657 27.2584C47.4738 23.3145 44.9257 21.4819 43.0783 20.9829L41.339 14.8954C42.8261 14.9695 44.6116 15.6332 46.5506 16.7209C48.7536 17.9568 51.0851 19.6997 53.2897 21.5938C57.7091 25.3908 61.542 29.7278 62.754 31.6671C63.0364 32.1189 63.6957 33.3601 64.4626 34.8217C64.6376 35.1553 64.8177 35.4992 64.9992 35.8459C65.606 37.0049 66.2295 38.1958 66.7379 39.1393C66.9889 39.6052 66.9585 39.8103 66.9266 39.9028C66.8798 40.0389 66.772 40.1432 66.5258 40.3815L66.5208 40.3863C66.304 40.596 65.9911 40.9071 65.88 41.3921C65.7678 41.8817 65.8805 42.4427 66.2331 43.1302C67.9788 46.5339 69.0368 50.3986 69.6228 53.5259C69.9153 55.0874 70.0888 56.4574 70.1718 57.4841C70.2134 57.9981 70.2319 58.4212 70.232 58.7366C70.2321 58.8946 70.2275 59.0203 70.2198 59.1139C70.2132 59.1946 70.2057 59.2328 70.2038 59.2424C70.2032 59.2452 70.2032 59.2456 70.2037 59.244C70.1688 59.3485 70.0675 59.5658 69.8879 59.902C69.7142 60.2273 69.4828 60.6358 69.2062 61.1087C68.6532 62.0538 67.9274 63.243 67.1393 64.5123C65.8169 66.642 64.3244 68.9889 63.1887 70.7728L52.678 31.5664ZM67.01 42.4361C67.1673 42.4869 67.3019 42.5764 67.4062 42.6634C67.6077 42.8316 67.7947 43.0702 67.9677 43.3351C68.1862 43.6696 68.411 44.0911 68.6374 44.5702C68.3127 43.5215 67.9944 42.524 67.7074 41.6686C67.6145 41.3915 67.525 41.13 67.4399 40.8869C67.3801 40.9488 67.3224 41.0036 67.2718 41.0518C67.2521 41.0705 67.2334 41.0882 67.2162 41.1049C67.002 41.3121 66.894 41.4441 66.8547 41.6154C66.8221 41.758 66.8228 42.0041 67.01 42.4361Z" fill="black"/>
<path d="M28.178 53.4021C25.378 53.8021 22.678 51.9021 21.678 50.9021C24.478 55.3021 27.5113 55.7354 28.678 55.4021C33.0113 53.9021 41.878 50.8021 42.678 50.4021C43.678 49.9021 45.678 43.4021 45.178 44.4021C44.778 45.2021 42.3446 46.4021 41.178 46.9021C41.5113 43.4021 42.078 37.4021 41.678 41.4021C41.178 46.4021 38.178 49.4021 35.178 50.9021C34.178 51.4021 31.678 52.9021 28.178 53.4021Z" fill="black"/>
<path fill-rule="evenodd" clip-rule="evenodd" d="M40.7369 46.2597C39.418 48.6941 37.4072 50.3465 35.4017 51.3493C35.2848 51.4077 35.1448 51.4814 34.9826 51.5667C33.794 52.1925 31.415 53.4447 28.2488 53.897C26.7816 54.1066 25.3634 53.7367 24.1887 53.1989C26.1411 55.0042 27.8633 55.1076 28.5286 54.9247C30.6948 54.1748 33.9855 53.028 36.8361 52.0182C38.2647 51.5122 39.5815 51.041 40.5905 50.6716C41.6184 50.2953 42.2867 50.0387 42.4545 49.9548C42.4542 49.9549 42.4546 49.9547 42.4554 49.954C42.4652 49.9461 42.5427 49.8834 42.6774 49.6819C42.8085 49.4856 42.9552 49.2177 43.1105 48.8958C43.4202 48.2538 43.7416 47.4437 44.0201 46.6702C44.1239 46.3819 44.221 46.1006 44.3087 45.8372C44.1186 45.96 43.9183 46.0809 43.7148 46.198C42.8896 46.6726 41.9713 47.1061 41.375 47.3616L40.6004 47.6936L40.6803 46.8546C40.6985 46.6631 40.7175 46.4641 40.7369 46.2597ZM41.7575 46.0903C41.9105 44.4807 42.0883 42.5994 42.2009 41.3857C42.2663 40.6811 42.3124 40.1735 42.3152 40.1008L42.3152 40.1007C42.3153 40.0967 42.3158 40.0838 42.3155 40.0681L42.3155 40.0677C42.3154 40.0621 42.315 40.0392 42.3112 40.0108C42.3084 39.9927 42.2969 39.9416 42.2866 39.9089C42.2537 39.8357 42.0495 39.6347 41.8488 39.5777C41.6498 39.6048 41.4254 39.7637 41.3823 39.8267C41.3668 39.8557 41.3468 39.9022 41.3409 39.919C41.332 39.9457 41.3273 39.9676 41.3261 39.9731L41.3261 39.9734C41.3228 39.9886 41.3208 40.0014 41.3202 40.0053L41.3202 40.0053C41.3174 40.0234 41.3146 40.0469 41.3123 40.0669C41.307 40.113 41.2989 40.1884 41.2878 40.2944C41.2655 40.5075 41.2305 40.8522 41.1805 41.3523C40.701 46.1479 37.834 49.0151 34.9545 50.4548C34.8278 50.5182 34.68 50.5958 34.5117 50.6841C33.3161 51.3119 31.0895 52.481 28.1073 52.9071C26.8381 53.0884 25.5656 52.7505 24.4688 52.226C23.3726 51.7017 22.4937 51.0106 22.0316 50.5485L21.2562 51.1705C24.1305 55.6871 27.3655 56.2971 28.8154 55.8828L28.8286 55.879L28.8416 55.8745C31.009 55.1243 34.3102 53.9739 37.17 52.9608C38.5997 52.4544 39.9204 51.9818 40.9343 51.6106C41.9294 51.2463 42.6694 50.9654 42.9017 50.8493C43.1543 50.723 43.3566 50.4653 43.5088 50.2374C43.6765 49.9865 43.8462 49.6723 44.0112 49.3302C44.3422 48.6441 44.677 47.7979 44.961 47.0089C45.2453 46.219 45.4838 45.4727 45.6206 44.9816C45.685 44.7507 45.7385 44.5364 45.7524 44.4049L45.7526 44.403C45.7553 44.3781 45.7643 44.2941 45.7444 44.202L45.7443 44.2015C45.7372 44.1686 45.701 44.0006 45.5335 43.8859C45.3068 43.7308 45.0808 43.8161 44.9948 43.8653C44.9146 43.9112 44.8656 43.9685 44.8488 43.9885C44.8258 44.016 44.8081 44.0422 44.7961 44.061C44.7719 44.0991 44.7499 44.1404 44.7308 44.1784C44.685 44.2701 44.5379 44.4371 44.2435 44.6636C43.9654 44.8775 43.6084 45.1056 43.2163 45.3311C42.7356 45.6076 42.2177 45.8713 41.7575 46.0903Z" fill="black"/>
<path d="M2.67798 52.902L12.178 40.402L13.178 41.402L4.67776 54.402C2.84443 55.9757 4.47797 54.7789 3.67797 55.402C2.87797 56.0252 3.0113 62.3158 3.67797 63.3895C3.67797 62.8895 9.27777 64.902 9.67776 64.902C10.1778 64.902 12.6778 62.402 12.178 58.902L11.6778 55.402C11.6778 55.402 9.67797 53.902 13.178 55.902C14.178 57.402 14.6778 61.3242 14.6778 61.902C14.6778 62.702 14.6778 62.902 13.6778 63.402C13.1778 64.402 13.0778 65.102 12.6778 65.902C12.2778 66.702 10.3444 66.5687 9.17776 66.402C8.67776 66.402 6.47777 64.902 5.67776 64.902C5.25194 64.902 4.42953 64.1465 3.67797 63.3895C3.01755 62.7243 2.41183 62.0579 2.17796 61.902C2.0113 61.402 2.57795 61.102 2.17795 59.902C0.977954 59.502 1.01114 58.5687 1.17781 57.902L1.17777 56.402C1.17777 56.402 0.77778 56.202 1.17778 55.402C1.57778 54.602 0.511314 54.902 2.67798 52.902Z" fill="black"/>
<path d="M8.17776 63.402L10.6778 58.902C10.6778 56.102 7.5111 57.5687 6.67776 58.402C3.67797 56.402 4.17776 58.7354 4.17776 60.402L8.17776 63.402Z" fill="black"/>
<path fill-rule="evenodd" clip-rule="evenodd" d="M12.1266 39.6435L13.8188 41.3357L5.05741 54.7352L5.00349 54.7815C4.72799 55.0179 4.53608 55.1874 4.40488 55.3072C4.39731 55.3442 4.38771 55.3711 4.38291 55.3837C4.35797 55.4494 4.3248 55.4944 4.31392 55.5089C4.29877 55.5291 4.28488 55.5446 4.27646 55.5537C4.24784 55.5844 4.21574 55.6118 4.19824 55.6266C4.15419 55.6638 4.08491 55.7189 3.98528 55.7965C3.9918 55.7914 3.99504 55.7885 3.99553 55.7889C3.99746 55.7906 3.95452 55.8456 3.89906 56.0266C3.83902 56.2226 3.78567 56.4927 3.74266 56.826C3.65701 57.4897 3.6198 58.3434 3.628 59.2222C3.63234 59.6866 3.64932 60.1537 3.67782 60.5984V60.4021C3.67782 60.2042 3.6704 59.9946 3.66252 59.7734L3.66243 59.7709C3.65471 59.5539 3.64659 59.3257 3.6466 59.1052C3.64662 58.6837 3.67336 58.1979 3.84893 57.8175C3.94277 57.6142 4.08959 57.417 4.3166 57.2846C4.54436 57.1518 4.80349 57.1129 5.07004 57.1388C5.50227 57.1808 6.01767 57.3995 6.63534 57.7805C6.8617 57.6083 7.13557 57.438 7.42742 57.2894C7.87407 57.0618 8.40307 56.8642 8.92349 56.794C9.4364 56.7249 10.0182 56.7707 10.4787 57.1322C10.9526 57.5041 11.1778 58.1134 11.1778 58.9021V59.0316L8.40655 64.0199C8.51554 64.0541 8.6204 64.087 8.72016 64.118C9.01046 64.2083 9.25655 64.2833 9.44107 64.3354C9.5257 64.3593 9.59315 64.3772 9.64369 64.3893C9.6531 64.3837 9.66388 64.377 9.67607 64.3691C9.75699 64.3163 9.86849 64.2274 10.0009 64.0985C10.2643 63.842 10.5809 63.4558 10.8719 62.961C11.4535 61.9723 11.9134 60.5858 11.6831 58.9728C11.6831 58.9728 11.6831 58.9728 11.6831 58.9728L11.2115 55.6732C11.1774 55.6462 11.1402 55.6162 11.1022 55.5849C11.032 55.5271 10.9535 55.4601 10.8857 55.3959C10.852 55.3639 10.8159 55.3279 10.783 55.2907C10.7561 55.2603 10.706 55.2013 10.6681 55.1255C10.6501 55.0895 10.6143 55.01 10.6096 54.9041C10.6039 54.778 10.6452 54.6116 10.7891 54.4884C10.9096 54.3852 11.0401 54.3674 11.0982 54.3634C11.1639 54.3589 11.2198 54.3667 11.2547 54.373C11.3786 54.3955 11.5273 54.4573 11.6766 54.5262C12.0026 54.6767 12.5501 54.9674 13.4261 55.4679L13.5286 55.5265L13.5941 55.6247C14.1552 56.4664 14.544 57.9134 14.7931 59.1491C15.0446 60.3974 15.1778 61.5619 15.1778 61.9021C15.1778 61.9236 15.1779 61.9454 15.1779 61.9674C15.1788 62.3049 15.1797 62.685 14.9838 63.0181C14.7971 63.3354 14.4721 63.5532 14.054 63.7714C13.8609 64.1785 13.735 64.5351 13.6132 64.8896C13.6049 64.9137 13.5966 64.9378 13.5883 64.962C13.4612 65.3326 13.3293 65.7172 13.125 66.1257C12.9473 66.4811 12.6222 66.6873 12.3042 66.8084C11.9837 66.9304 11.6133 66.9888 11.249 67.0134C10.5287 67.062 9.72638 66.9844 9.13307 66.9007C8.98871 66.8922 8.84605 66.845 8.7414 66.8059C8.6102 66.7568 8.46387 66.6903 8.31378 66.6173C8.08386 66.5055 7.81764 66.3645 7.54844 66.2219C7.46808 66.1793 7.38745 66.1366 7.30745 66.0945C6.95139 65.9071 6.60103 65.7278 6.29413 65.5957C5.96495 65.4539 5.76348 65.4021 5.67782 65.4021C5.44175 65.4021 5.21912 65.304 5.04851 65.2092C4.8652 65.1073 4.67433 64.9701 4.48687 64.8194C4.11122 64.5175 3.70152 64.1229 3.3232 63.7418C3.1137 63.5308 2.90542 63.3153 2.71604 63.1193C2.60679 63.0063 2.50382 62.8998 2.41054 62.8043C2.27996 62.6708 2.16707 62.5576 2.0742 62.4696C1.97465 62.3752 1.92008 62.331 1.90067 62.3181L1.75793 62.2229L1.70368 62.0602C1.62625 61.8279 1.63914 61.622 1.67367 61.4493C1.68979 61.3687 1.7115 61.2915 1.7295 61.2285C1.73223 61.219 1.7349 61.2097 1.73751 61.2006C1.75343 61.1451 1.76721 61.097 1.78004 61.045C1.82248 60.8727 1.85822 60.6476 1.76755 60.2793C1.19212 60.0256 0.846077 59.6303 0.690576 59.1586C0.534527 58.6852 0.593829 58.2024 0.677867 57.8425L0.677835 56.6054C0.630032 56.5388 0.585931 56.4575 0.55349 56.3602C0.446771 56.04 0.496157 55.6474 0.730625 55.1785C0.784739 55.0702 0.781068 55.0301 0.778494 55.0019C0.778364 55.0005 0.778238 54.9991 0.778121 54.9977C0.77791 54.9953 0.777094 54.9898 0.775887 54.9818C0.766699 54.9205 0.734866 54.7083 0.774881 54.5053C0.824209 54.2551 0.961433 54.0062 1.19428 53.713C1.42418 53.4235 1.77589 53.0561 2.30645 52.5647L12.1266 39.6435ZM12.2627 55.9601L12.673 58.8313C12.9425 60.7183 12.4022 62.3319 11.7338 63.4681C11.3998 64.0359 11.0288 64.4933 10.6985 64.815C10.534 64.9751 10.3721 65.109 10.2225 65.2065C10.1479 65.2552 10.0686 65.3001 9.98732 65.3342C9.91243 65.3656 9.80317 65.4021 9.67782 65.4021C9.58701 65.4021 9.4877 65.3797 9.43149 65.3666C9.35734 65.3494 9.26805 65.3256 9.16929 65.2977C8.971 65.2417 8.71398 65.1634 8.42305 65.0728C8.22467 65.0111 8.01 64.9436 7.78479 64.8727C7.34342 64.7339 6.86157 64.5823 6.38254 64.4367C5.95764 64.3076 5.54227 64.1855 5.1683 64.0836C5.31018 64.1946 5.43302 64.2789 5.5343 64.3351C5.63875 64.3932 5.68421 64.401 5.68407 64.402C5.68404 64.4022 5.68191 64.4021 5.67782 64.4021C5.99217 64.4021 6.36569 64.5377 6.68964 64.6772C7.03587 64.8263 7.41675 65.022 7.7732 65.2096C7.85999 65.2553 7.94505 65.3003 8.02806 65.3443C8.29365 65.4849 8.53824 65.6144 8.75124 65.7181C8.89022 65.7857 9.00403 65.8364 9.09198 65.8693C9.15849 65.8942 9.18908 65.9007 9.19343 65.9021H9.21336L9.24853 65.9071C9.81947 65.9886 10.5542 66.058 11.1817 66.0157C11.4965 65.9944 11.7573 65.9466 11.9483 65.8739C12.1418 65.8002 12.2083 65.723 12.2306 65.6785C12.4041 65.3314 12.5162 65.0049 12.6472 64.6235C12.6539 64.604 12.6607 64.5843 12.6675 64.5645C12.8063 64.1607 12.965 63.7096 13.2306 63.1785L13.3051 63.0294L13.4542 62.9548C13.9625 62.7007 14.0806 62.5811 14.1219 62.5111C14.1631 62.4409 14.1778 62.3489 14.1778 61.9021C14.1778 61.6643 14.0611 60.5788 13.8128 59.3466C13.5735 58.1596 13.2342 56.9551 12.8226 56.275C12.6153 56.1569 12.4292 56.0524 12.2627 55.9601ZM3.9835 62.8139C4.1763 62.827 4.41554 62.8706 4.66798 62.9269C5.21936 63.0497 5.94768 63.2594 6.67331 63.4799C7.12203 63.6163 7.57782 63.7593 7.99633 63.8909L3.68151 60.6548C3.70647 61.0298 3.73967 61.388 3.78042 61.7142C3.82592 62.0784 3.87992 62.3953 3.94014 62.6475C3.95482 62.709 3.96935 62.7644 3.9835 62.8139ZM2.7785 61.7594C2.76259 61.6265 2.74788 61.4893 2.73439 61.3488C2.7217 61.3964 2.70898 61.4407 2.69806 61.4787C2.6956 61.4873 2.69324 61.4955 2.69099 61.5033C2.67309 61.566 2.66177 61.6081 2.65444 61.6445C2.69082 61.6769 2.72701 61.7105 2.76218 61.7438C2.76757 61.749 2.77301 61.7541 2.7785 61.7594ZM2.63641 59.6961C2.63228 59.5413 2.62949 59.3861 2.62805 59.2315C2.61959 58.3255 2.65737 57.4226 2.75089 56.698C2.79746 56.3371 2.85973 56.0052 2.94293 55.7337C3.00877 55.5188 3.11193 55.2549 3.29788 55.0717C3.30267 55.059 3.30698 55.0491 3.30998 55.0423C3.34404 54.9659 3.39183 54.9081 3.41107 54.8851C3.43847 54.8523 3.47045 54.8182 3.50463 54.7835C3.63283 54.6535 3.87418 54.434 4.29814 54.0691L12.5373 41.4684L12.2295 41.1607L3.0495 53.2396L3.01718 53.2695C2.48256 53.763 2.16472 54.099 1.97736 54.3349C1.78829 54.573 1.76088 54.674 1.756 54.6988C1.75151 54.7215 1.75166 54.7224 1.75519 54.7441C1.7587 54.7657 1.76555 54.8079 1.77449 54.9126C1.79182 55.1154 1.76822 55.3393 1.62505 55.6257C1.52364 55.8285 1.50289 55.9474 1.50049 56.0044L1.67782 56.0931L1.67787 57.9636L1.66294 58.0233C1.58759 58.3248 1.56372 58.6132 1.64031 58.8455C1.70501 59.0418 1.86441 59.2705 2.33613 59.4277L2.5733 59.5068L2.63641 59.6961ZM4.17831 55.5265C4.17864 55.5261 4.17908 55.5256 4.17963 55.5249C4.17555 55.5303 4.1745 55.531 4.17831 55.5265ZM7.88135 58.1804C7.49721 58.3761 7.19126 58.5957 7.03138 58.7556L6.74152 59.0455L6.40046 58.8181C5.66267 58.3262 5.21846 58.1579 4.97327 58.1341C4.86484 58.1235 4.82709 58.1445 4.82047 58.1484C4.8131 58.1527 4.78804 58.1691 4.75687 58.2366C4.68241 58.3979 4.64662 58.6829 4.6466 59.1052C4.64659 59.3057 4.65402 59.5167 4.66189 59.7378L4.66213 59.7445C4.66686 59.8773 4.67171 60.0138 4.67475 60.1498L8.01917 62.6581L10.1753 58.777C10.1537 58.2549 9.99687 58.0252 9.8613 57.9188C9.70208 57.7938 9.44008 57.7334 9.05716 57.7851C8.68174 57.8357 8.26283 57.9861 7.88135 58.1804Z" fill="black"/>
<path fill-rule="evenodd" clip-rule="evenodd" d="M21.7979 40.0057L23.8488 41.8101L22.0287 44.3384C21.3466 45.4664 20.3973 46.798 19.34 48.178C19.0261 48.5875 18.7021 49.0022 18.3718 49.4181L12.8117 57.1416L11.4662 55.9579L11.8081 55.5818C13.3739 53.86 15.5893 51.3129 17.574 48.8147L21.1934 43.787C21.2181 43.7461 21.2423 43.7054 21.2662 43.6651C21.5956 43.1084 21.8402 42.6274 21.9885 42.2382C22.1456 41.8256 22.1605 41.601 22.1405 41.5129L21.7979 40.0057Z" fill="black"/>
<path d="M4.17798 62.902C4.84465 63.5687 9.87776 67.002 10.6778 67.402C11.4778 67.802 17.8446 60.2354 18.178 59.902L12.1778 67.402C13.6895 67.8672 14.6009 68.1214 15.1496 68.0967C15.577 67.8289 15.9671 67.6129 15.678 67.902C15.5571 68.0229 15.3874 68.086 15.1496 68.0967C14.9858 68.1994 14.8165 68.3097 14.678 68.402C11.178 68.402 3.87798 67.002 2.67798 61.402L4.17798 62.902Z" fill="black"/>
<path fill-rule="evenodd" clip-rule="evenodd" d="M15.3138 68.5845C15.1875 68.6649 15.0622 68.7469 14.9554 68.8181L14.8294 68.902H14.678C12.8768 68.902 10.1057 68.5441 7.61597 67.4605C5.12581 66.3767 2.83625 64.5268 2.18911 61.5068L1.83435 59.8513L4.53156 62.5485C4.66483 62.6818 5.06846 62.9967 5.65709 63.4263C6.23024 63.8445 6.94283 64.3459 7.66127 64.8401C8.37956 65.3342 9.10116 65.8194 9.69191 66.2053C10.1829 66.526 10.5645 66.7656 10.7804 66.889C10.8194 66.8684 10.8712 66.8378 10.9368 66.7936C11.1563 66.6457 11.4499 66.4021 11.8015 66.0781C12.5005 65.4342 13.3705 64.5278 14.235 63.5884C15.0975 62.6513 15.9465 61.6903 16.6017 60.9415C16.8114 60.7019 17.0043 60.4803 17.1724 60.2873C17.5174 59.8912 17.7579 59.6151 17.8245 59.5485L18.5684 60.2144L13.0293 67.1381C13.4635 67.2675 13.8309 67.371 14.1435 67.4473C14.5339 67.5427 14.8103 67.5883 15.007 67.5969C15.1799 67.4908 15.3558 67.3889 15.4784 67.334C15.5132 67.3185 15.5787 67.2904 15.6527 67.2756C15.6819 67.2698 15.7755 67.2519 15.888 67.2793C15.9514 67.2948 16.0414 67.3297 16.1231 67.4088C16.2096 67.4927 16.2557 67.5963 16.2713 67.6939C16.2974 67.8572 16.2363 67.9811 16.2218 68.0107C16.1982 68.0586 16.1712 68.0962 16.1537 68.1192C16.1173 68.1671 16.0733 68.2138 16.0316 68.2556C15.8296 68.4576 15.578 68.5519 15.3138 68.5845ZM10.6989 66.9239C10.699 66.9236 10.7028 66.9223 10.7097 66.921C10.7021 66.9235 10.6987 66.9242 10.6989 66.9239ZM8.93719 66.9062C8.38162 66.5405 7.7361 66.1053 7.09453 65.664C6.37136 65.1665 5.65067 64.6595 5.06761 64.2341C4.67996 63.9512 4.33526 63.6916 4.09193 63.4917C5.00838 64.8654 6.42488 65.8515 8.01504 66.5436C8.31837 66.6756 8.62664 66.7962 8.93719 66.9062Z" fill="black"/>
<defs>
<filter id="filter0_d_9_143" x="20.5564" y="0.245422" width="37.3511" height="19.8083" filterUnits="userSpaceOnUse" color-interpolation-filters="sRGB">
<feFlood flood-opacity="0" result="BackgroundImageFix"/>
<feColorMatrix in="SourceAlpha" type="matrix" values="0 0 0 0 0 0 0 0 0 0 0 0 0 0 0 0 0 0 127 0" result="hardAlpha"/>
<feOffset dy="1"/>
<feGaussianBlur stdDeviation="1"/>
<feComposite in2="hardAlpha" operator="out"/>
<feColorMatrix type="matrix" values="0 0 0 0 0 0 0 0 0 0 0 0 0 0 0 0 0 0 0.75 0"/>
<feBlend mode="normal" in2="BackgroundImageFix" result="effect1_dropShadow_9_143"/>
<feBlend mode="normal" in="SourceGraphic" in2="effect1_dropShadow_9_143" result="shape"/>
</filter>
</defs>
</svg>
