<svg width="41" height="60" viewBox="0 0 41 60" fill="none" xmlns="http://www.w3.org/2000/svg">
<path d="M7.45868 33.7601H1.57025L3.31174 51.4827L13.3471 56.6942L20.8849 59.8347V22.1488H1.57025V28.0563H15.9771V48.4271C11.0376 48.753 6.77264 36.0688 7.45868 33.7601Z" fill="#C4C4C4"/>
<path d="M33.8395 33.7601H39.7279L37.9864 51.4827L27.9511 56.6942L20.4132 59.8347V22.1488H39.7279V28.0563H25.3211V48.4271C30.2606 48.753 34.5255 36.0688 33.8395 33.7601Z" fill="#C4C4C4"/>
<path d="M13.3471 0.950417L20.4132 9.8202V15.8678H0V0.950417L10.5409 9.8202L13.3471 0.950417Z" fill="#C4C4C4"/>
<path d="M26.3017 0.950417L19.6281 9.8202V15.8678H40.0413V0.950417L29.5005 9.8202L26.3017 0.950417Z" fill="#C4C4C4"/>
</svg>
