<svg width="259" height="289" viewBox="0 0 259 289" fill="none" xmlns="http://www.w3.org/2000/svg">
<path d="M93 99C81 91.8 35 30 13.5 0C11 5.5 71.5 101.5 76 109C69 112.5 63 120.5 57 125.5C51 130.5 44 153 39 164.5C34 176 19.5 191.5 11.5 197C3.5 202.5 2 213.5 1 226.5C3.27453e-06 239.5 15.5 248 24 251.5C30.8 254.3 34.5 252.667 35.5 251.5C36.5 250.167 40.2 245.2 47 236C55.5 224.5 65.5 218 76 213.5C86.5 209 99.5 207.5 112 206.5C124.5 205.5 128 200.5 134 195.5C131.5 205.5 132 205.5 124.5 219.5C117 233.5 103 239.5 93.5 244.5C84 249.5 69 250 51.5 256C37.5 260.8 30.6667 280 29 289H252C253.667 282 257.3 264.5 258.5 250.5C260 233 257 212 249 189C241 166 216.5 138 201.5 124C186.5 110 147 98.5 143.5 98.5C142.3 95.7 143 89.6667 143.5 88.5C143.667 87.6667 145 83.8 149 75C154 64 150 36.5 150 45C150 53.5 126 76.5 121 81C116 85.5 105 92.5 93 99Z" fill="black"/>
</svg>
