<svg width="762" height="400" viewBox="0 0 762 400" fill="none" xmlns="http://www.w3.org/2000/svg">
<path d="M762 286H0L40.9731 342.513L0 400H762L722.026 342.513L762 286Z" fill="white"/>
<path d="M86.3877 347.819C86.3877 351.306 85.7285 354.587 84.4102 357.663C83.0918 360.71 81.29 363.376 79.0049 365.661C76.749 367.917 74.083 369.704 71.0068 371.022C67.96 372.341 64.6934 373 61.207 373C59.0977 373 56.9883 372.736 54.8789 372.209V358.674C55.8164 359.23 56.8271 359.655 57.9111 359.948C58.9951 360.241 60.0938 360.388 61.207 360.388C62.9355 360.388 64.5615 360.065 66.085 359.421C67.6377 358.747 68.9854 357.839 70.1279 356.696C71.2705 355.554 72.1641 354.221 72.8086 352.697C73.4824 351.174 73.8193 349.548 73.8193 347.819V309.982H86.3877V347.819Z" fill="black"/>
<path d="M141.495 373H97.374V309.982H109.986V360.388H141.495V373Z" fill="black"/>
<path d="M216.51 373H173.312V309.982H216.51V322.595H185.924V335.207H206.622V347.819H185.924V360.388H216.51V373Z" fill="black"/>
<path d="M277.066 385.612H262.74L255.182 374.274C254.771 374.333 254.376 374.362 253.995 374.362C253.644 374.362 253.292 374.362 252.94 374.362C249.952 374.362 247.066 373.967 244.283 373.176C241.529 372.414 238.937 371.33 236.505 369.924C234.103 368.488 231.905 366.774 229.913 364.782C227.921 362.79 226.207 360.593 224.771 358.19C223.365 355.759 222.267 353.166 221.476 350.412C220.714 347.629 220.333 344.743 220.333 341.755C220.333 338.767 220.714 335.881 221.476 333.098C222.267 330.314 223.365 327.722 224.771 325.319C226.207 322.917 227.921 320.72 229.913 318.728C231.905 316.735 234.103 315.036 236.505 313.63C238.937 312.224 241.529 311.14 244.283 310.378C247.066 309.587 249.952 309.191 252.94 309.191C255.929 309.191 258.814 309.587 261.598 310.378C264.381 311.14 266.974 312.224 269.376 313.63C271.778 315.036 273.976 316.735 275.968 318.728C277.96 320.72 279.659 322.917 281.065 325.319C282.472 327.722 283.556 330.314 284.317 333.098C285.108 335.881 285.504 338.767 285.504 341.755C285.504 344.86 285.064 347.878 284.186 350.808C283.336 353.737 282.12 356.477 280.538 359.025C278.956 361.545 277.037 363.83 274.781 365.881C272.555 367.932 270.064 369.646 267.311 371.022L277.066 385.612ZM272.979 341.755C272.979 339.001 272.452 336.408 271.397 333.977C270.343 331.516 268.907 329.392 267.091 327.604C265.304 325.788 263.18 324.353 260.719 323.298C258.287 322.243 255.694 321.716 252.94 321.716C250.157 321.716 247.55 322.243 245.118 323.298C242.687 324.353 240.562 325.788 238.746 327.604C236.93 329.392 235.494 331.516 234.439 333.977C233.385 336.408 232.857 339.001 232.857 341.755C232.857 344.509 233.385 347.102 234.439 349.533C235.494 351.936 236.93 354.045 238.746 355.861C240.562 357.678 242.687 359.113 245.118 360.168C247.55 361.223 250.157 361.75 252.94 361.75C255.694 361.75 258.287 361.223 260.719 360.168C263.18 359.113 265.304 357.678 267.091 355.861C268.907 354.045 270.343 351.936 271.397 349.533C272.452 347.102 272.979 344.509 272.979 341.755Z" fill="black"/>
<path d="M343.512 347.819C343.512 351.306 342.853 354.587 341.534 357.663C340.216 360.71 338.414 363.376 336.129 365.661C333.844 367.917 331.163 369.704 328.087 371.022C325.04 372.341 321.773 373 318.287 373C314.801 373 311.52 372.341 308.443 371.022C305.396 369.704 302.73 367.917 300.445 365.661C298.189 363.376 296.402 360.71 295.084 357.663C293.766 354.587 293.106 351.306 293.106 347.819V309.982H305.675V347.819C305.675 349.548 305.997 351.174 306.642 352.697C307.315 354.221 308.224 355.554 309.366 356.696C310.509 357.839 311.842 358.747 313.365 359.421C314.918 360.065 316.559 360.388 318.287 360.388C320.016 360.388 321.642 360.065 323.165 359.421C324.718 358.747 326.065 357.839 327.208 356.696C328.351 355.554 329.244 354.221 329.889 352.697C330.562 351.174 330.899 349.548 330.899 347.819V309.982H343.512V347.819Z" fill="black"/>
<path d="M397.652 373H354.454V309.982H397.652V322.595H367.066V335.207H387.765V347.819H367.066V360.388H397.652V373Z" fill="black"/>
<path d="M402.091 328.879C402.091 326.271 402.589 323.825 403.585 321.54C404.581 319.255 405.929 317.263 407.628 315.563C409.356 313.835 411.363 312.473 413.648 311.477C415.934 310.48 418.38 309.982 420.987 309.982H449.903V322.595H420.987C420.108 322.595 419.288 322.756 418.526 323.078C417.765 323.4 417.091 323.854 416.505 324.44C415.948 324.997 415.509 325.656 415.187 326.418C414.864 327.18 414.703 328 414.703 328.879C414.703 329.758 414.864 330.593 415.187 331.384C415.509 332.146 415.948 332.819 416.505 333.405C417.091 333.962 417.765 334.401 418.526 334.724C419.288 335.046 420.108 335.207 420.987 335.207H433.6C436.207 335.207 438.653 335.705 440.938 336.701C443.253 337.668 445.26 339.016 446.959 340.744C448.688 342.443 450.035 344.45 451.002 346.765C451.998 349.05 452.496 351.496 452.496 354.104C452.496 356.711 451.998 359.157 451.002 361.442C450.035 363.728 448.688 365.734 446.959 367.463C445.26 369.162 443.253 370.51 440.938 371.506C438.653 372.502 436.207 373 433.6 373H405.606V360.388H433.6C434.479 360.388 435.299 360.227 436.061 359.904C436.822 359.582 437.481 359.143 438.038 358.586C438.624 358 439.078 357.326 439.4 356.564C439.723 355.803 439.884 354.982 439.884 354.104C439.884 353.225 439.723 352.404 439.4 351.643C439.078 350.881 438.624 350.222 438.038 349.665C437.481 349.079 436.822 348.625 436.061 348.303C435.299 347.98 434.479 347.819 433.6 347.819H420.987C418.38 347.819 415.934 347.321 413.648 346.325C411.363 345.329 409.356 343.981 407.628 342.282C405.929 340.554 404.581 338.547 403.585 336.262C402.589 333.947 402.091 331.486 402.091 328.879Z" fill="black"/>
<path d="M486.378 373H473.81V322.595H454.869V309.982H505.274V322.595H486.378V373Z" fill="black"/>
<path d="M524.566 322.595V347.819H537.179C538.907 347.819 540.533 347.497 542.057 346.853C543.58 346.179 544.913 345.271 546.056 344.128C547.198 342.985 548.092 341.652 548.736 340.129C549.41 338.576 549.747 336.936 549.747 335.207C549.747 333.479 549.41 331.853 548.736 330.329C548.092 328.776 547.198 327.429 546.056 326.286C544.913 325.144 543.58 324.25 542.057 323.605C540.533 322.932 538.907 322.595 537.179 322.595H524.566ZM524.566 373H511.954V309.982H537.179C539.493 309.982 541.72 310.29 543.858 310.905C545.997 311.491 547.989 312.341 549.835 313.454C551.71 314.538 553.409 315.856 554.933 317.409C556.485 318.933 557.804 320.632 558.888 322.507C560.001 324.382 560.851 326.389 561.437 328.527C562.052 330.666 562.359 332.893 562.359 335.207C562.359 337.375 562.081 339.484 561.524 341.535C560.997 343.586 560.221 345.534 559.195 347.38C558.199 349.226 556.969 350.925 555.504 352.478C554.039 354.03 552.398 355.378 550.582 356.521L557.569 373H544.166L538.673 360.3L524.566 360.388V373Z" fill="black"/>
<path d="M583.277 373H570.665V309.982H583.277V373Z" fill="black"/>
<path d="M632.101 347.819V335.207C632.101 333.479 631.764 331.853 631.09 330.329C630.445 328.776 629.552 327.429 628.409 326.286C627.267 325.144 625.919 324.25 624.366 323.605C622.843 322.932 621.217 322.595 619.488 322.595C617.76 322.595 616.119 322.932 614.566 323.605C613.043 324.25 611.71 325.144 610.567 326.286C609.425 327.429 608.517 328.776 607.843 330.329C607.198 331.853 606.876 333.479 606.876 335.207V347.819H632.101ZM644.713 373H632.101V360.388H606.876V373H594.308V335.207C594.308 331.721 594.967 328.454 596.285 325.407C597.604 322.331 599.391 319.65 601.646 317.365C603.932 315.08 606.598 313.278 609.645 311.96C612.721 310.642 616.002 309.982 619.488 309.982C622.975 309.982 626.241 310.642 629.288 311.96C632.364 313.278 635.045 315.08 637.33 317.365C639.615 319.65 641.417 322.331 642.735 325.407C644.054 328.454 644.713 331.721 644.713 335.207V373Z" fill="black"/>
<path d="M706.061 373H692.569L668.268 331.516V373H655.655V309.982H669.146L693.448 351.511V309.982H706.061V373Z" fill="black"/>
<path d="M344 99C332 91.8 286 30 264.5 0C262 5.5 322.5 101.5 327 109C320 112.5 314 120.5 308 125.5C302 130.5 295 153 290 164.5C285 176 270.5 191.5 262.5 197C254.5 202.5 253 213.5 252 226.5C251 239.5 266.5 248 275 251.5C281.8 254.3 285.5 252.667 286.5 251.5C287.5 250.167 291.2 245.2 298 236C306.5 224.5 316.5 218 327 213.5C337.5 209 350.5 207.5 363 206.5C375.5 205.5 379 200.5 385 195.5C382.5 205.5 383 205.5 375.5 219.5C368 233.5 354 239.5 344.5 244.5C335 249.5 320 250 302.5 256C288.5 260.8 281.667 280 280 289H503C504.667 282 508.3 264.5 509.5 250.5C511 233 508 212 500 189C492 166 467.5 138 452.5 124C437.5 110 398 98.5 394.5 98.5C393.3 95.7 394 89.6667 394.5 88.5C394.667 87.6667 396 83.8 400 75C405 64 401 36.5 401 45C401 53.5 377 76.5 372 81C367 85.5 356 92.5 344 99Z" fill="white"/>
</svg>
